<svg width="54" height="38" viewBox="0 0 54 38" fill="none" xmlns="http://www.w3.org/2000/svg">
<path d="M49.3365 0.800049H6.36862C4.00648 0.800049 2.09373 2.72433 2.09373 5.07494V15.9062V17.0469V24.3753C1.12583 24.6288 0.399902 25.5161 0.399902 26.5531C0.399902 27.6017 1.12583 28.4889 2.09373 28.7309V32.9136C2.09373 35.2757 4.00648 37.1885 6.36862 37.1885H12.1645H13.3052H22.2353H23.376H32.306H33.4468H42.3883H43.5291H49.325C51.6871 37.1885 53.5998 35.2757 53.5998 32.9136V27.1177V25.977V17.0469V15.9062V5.07494C53.6114 2.72433 51.6986 0.800049 49.3365 0.800049ZM43.5406 25.9885V17.865L51.6641 25.9885H43.5406ZM51.6641 27.1408L43.5406 35.2642V27.1408H51.6641ZM42.3999 25.9885H33.4583V17.0585H42.3999V25.9885ZM32.3176 25.9885H23.3875V17.0585H32.3176V25.9885ZM22.2468 25.9885H13.3168V17.0585H22.2468V25.9885ZM12.1645 25.9885H4.84764C4.75545 25.5967 4.54805 25.2511 4.25998 24.963C3.97192 24.6749 3.61471 24.479 3.23447 24.3753V17.0469H12.1645V25.9885ZM1.54064 26.5646C1.54064 26.1613 1.75957 25.8041 2.09373 25.6083C2.25504 25.5045 2.45093 25.4469 2.65834 25.4469C2.86574 25.4469 3.06163 25.5045 3.22294 25.6083C3.3036 25.6543 3.38426 25.712 3.4534 25.7811C3.52253 25.8502 3.56862 25.9194 3.61471 25.9885C3.71842 26.1613 3.77603 26.3572 3.77603 26.5531C3.77603 26.7605 3.71842 26.9564 3.61471 27.1292C3.52253 27.2906 3.38426 27.4173 3.22294 27.5095C3.06163 27.6132 2.86574 27.6708 2.65834 27.6708C2.45093 27.6708 2.25504 27.6132 2.09373 27.5095C1.75957 27.3251 1.54064 26.9679 1.54064 26.5646ZM12.1645 36.0708H6.36862C4.64023 36.0708 3.23447 34.665 3.23447 32.9366V28.7539C4.02953 28.5465 4.65175 27.9358 4.84764 27.1408H12.1645V36.0708ZM22.2468 36.0708H13.3168V27.1408H22.2468V36.0708ZM32.3176 36.0708H23.3875V27.1408H32.3176V36.0708ZM42.3999 36.0708H33.4583V27.1408H42.3999V36.0708ZM49.3365 36.0708H44.3472L52.4706 27.9473V32.9366C52.4706 34.665 51.0649 36.0708 49.3365 36.0708ZM52.4706 25.1819L44.3472 17.0585H52.4706V25.1819ZM43.5406 15.9177H42.3999H33.4583H32.3176H23.3875H22.2468H13.3168H12.176H3.24599V5.08647C3.24599 3.35807 4.65175 1.95231 6.38014 1.95231H49.348C51.0764 1.95231 52.4822 3.35807 52.4822 5.08647V15.9177H43.5406Z" fill="#1C1C1C"/>
<path d="M8.15439 10.5136C8.16591 10.5136 8.18896 10.5251 8.22352 10.5251C8.41941 10.5251 8.89184 10.3868 8.91488 9.90286L8.98402 8.57776C9.06468 7.09134 10.0326 5.88147 11.3231 5.88147H12.291C12.6021 5.88147 13.0285 5.88147 13.6276 5.92756C13.6161 5.97365 13.5815 6.42303 13.5815 6.69958V10.6864C13.5815 10.9629 13.6046 11.4008 13.6276 11.4469C13.5815 11.4584 13.2935 11.5276 13.0054 11.5276C12.7173 11.5276 12.4293 11.4584 12.3832 11.4469C12.3947 11.4008 12.4293 10.9745 12.4293 10.6864V6.93003H11.4614C10.7009 6.93003 10.1363 7.74813 10.0902 8.7506L10.0211 10.1218C9.98649 10.9514 9.29513 11.5736 8.18896 11.5736H8.13134C8.11982 11.5276 8.07373 11.3317 8.07373 11.0551C8.09678 10.7671 8.13134 10.5481 8.15439 10.5136Z" fill="#1C1C1C"/>
<path d="M27.5355 10.3984C27.4894 10.4099 27.04 10.4445 26.7635 10.4445V6.6881C26.7635 6.41156 26.7865 5.96218 26.8096 5.91608C26.2104 5.86999 25.7841 5.87 25.473 5.87H24.6433C23.3528 5.87 22.3849 7.07987 22.3042 8.56629L22.2351 9.89139C22.2121 10.3523 21.7972 10.456 21.5783 10.456C21.5322 10.456 21.4861 10.456 21.4746 10.4445C21.4631 10.4906 21.417 10.698 21.417 10.9745C21.417 11.2511 21.4631 11.4469 21.4746 11.493H21.5437H21.5668H26.7635C27.04 11.493 27.4894 11.5161 27.5355 11.5391C27.547 11.493 27.6046 11.228 27.6046 10.9515C27.6046 10.6749 27.547 10.4445 27.5355 10.3984ZM25.6112 10.4445H23.2606L23.2721 10.1218L23.3413 8.75065C23.3874 7.74818 24.0211 6.90703 24.7816 6.90703H25.6112V10.4445Z" fill="#1C1C1C"/>
<path d="M28.6533 10.4445C28.6764 10.456 28.7109 10.456 28.757 10.456C28.9644 10.456 29.3908 10.3523 29.4138 9.89139L29.4829 8.56629C29.5636 7.07987 30.5315 5.87 31.822 5.87H32.6517C32.9628 5.87 33.3891 5.86999 33.9883 5.91608C33.9768 5.96218 33.9422 6.41156 33.9422 6.6881V10.4445C34.2187 10.4445 34.6681 10.4214 34.7142 10.3984C34.7257 10.4445 34.7834 10.6634 34.7834 10.9515C34.7834 11.2395 34.7257 11.5046 34.7142 11.5391C34.6681 11.5276 34.2187 11.493 33.9422 11.493H28.7455H28.7225H28.6533C28.6418 11.4469 28.5957 11.2511 28.5957 10.9745C28.5957 10.698 28.6418 10.479 28.6533 10.4445ZM30.4508 10.4445H32.8015V6.90703H31.9718C31.2113 6.90703 30.5776 7.74818 30.5315 8.75065L30.4624 10.1218L30.4508 10.4445Z" fill="#1C1C1C"/>
<path d="M45.0842 5.80078C44.4389 5.80078 43.471 5.91601 42.6068 5.92753H42.5146C42.5377 6.0658 42.5607 6.41148 42.5607 6.68802V13.4633C42.5607 13.7399 42.5377 14.1893 42.5146 14.2353C42.5607 14.2469 42.8373 14.3045 43.1138 14.3045C43.3904 14.3045 43.6784 14.2469 43.713 14.2353C43.7015 14.1893 43.6669 13.7399 43.6669 13.4633V11.3316C44.0011 11.4814 44.3813 11.5621 44.7961 11.5621C46.4208 11.5621 47.6076 10.3061 47.6076 8.68144C47.6076 7.05675 46.7089 5.80078 45.0842 5.80078ZM44.7961 10.5827C44.3583 10.5827 43.9665 10.4098 43.6669 10.1218V6.93C44.0241 6.83782 44.4159 6.79173 44.7961 6.79173C45.7525 6.79173 46.4093 7.60983 46.4093 8.69296C46.4208 9.76456 45.7525 10.5827 44.7961 10.5827Z" fill="#1C1C1C"/>
<path d="M38.3784 5.80078C36.5578 5.80078 35.5784 6.89543 35.5669 8.68144C35.5669 10.3061 36.6385 11.5621 38.2632 11.5621C39.5307 11.5621 40.5101 11.2049 40.7175 11.1242L40.5216 10.479C40.4525 10.237 40.3718 10.1333 40.2451 10.1333C40.199 10.1333 40.1529 10.1448 40.0838 10.1679C39.6344 10.3637 39.0122 10.6057 38.5052 10.6057C37.664 10.6057 36.9035 9.94893 36.7307 9.06169L41.0747 8.91189L41.0862 8.69296V8.68144C41.0747 6.89543 40.1875 5.80078 38.3784 5.80078ZM36.7422 8.30119L36.7768 8.04769C36.9381 7.24111 37.6179 6.72259 38.3784 6.72259C39.2772 6.72259 39.9685 7.34481 40.0607 8.22053L36.7422 8.30119Z" fill="#1C1C1C"/>
<path d="M17.7871 5.80078C15.9665 5.80078 14.9871 6.89543 14.9756 8.68144C14.9756 10.3061 16.0472 11.5621 17.6719 11.5621C18.9394 11.5621 19.9188 11.2049 20.1262 11.1242L19.9303 10.479C19.8612 10.237 19.7805 10.1333 19.6538 10.1333C19.6077 10.1333 19.5616 10.1448 19.4925 10.1679C19.0431 10.3637 18.4209 10.6057 17.9139 10.6057C17.0727 10.6057 16.3122 9.94893 16.1394 9.06169L20.4834 8.91189L20.4949 8.69296V8.68144C20.4834 6.89543 19.5962 5.80078 17.7871 5.80078ZM16.1509 8.30119L16.1855 8.04769C16.3468 7.24111 17.0266 6.72259 17.7871 6.72259C18.6859 6.72259 19.3772 7.34481 19.4694 8.22053L16.1509 8.30119Z" fill="#1C1C1C"/>
</svg>
